<mxfile host="app.diagrams.net" agent="Mozilla/5.0 (Windows NT 10.0; Win64; x64) AppleWebKit/537.36 (KHTML, like Gecko) Chrome/138.0.0.0 Safari/537.36" version="28.0.6">
  <diagram name="第 1 页" id="JqjY_3OXJ0ycC8vNH0t1">
    <mxGraphModel dx="1553" dy="1136" grid="0" gridSize="10" guides="1" tooltips="1" connect="1" arrows="1" fold="1" page="1" pageScale="1" pageWidth="827" pageHeight="1169" math="0" shadow="0">
      <root>
        <mxCell id="0" />
        <mxCell id="1" parent="0" />
        <mxCell id="YZDyfqU8U48T_e9WPzMG-7" value="" style="rounded=1;whiteSpace=wrap;html=1;fillColor=none;dashed=1;fontSize=14;fontFamily=Times New Roman;" parent="1" vertex="1">
          <mxGeometry x="72" y="54" width="591" height="422" as="geometry" />
        </mxCell>
        <mxCell id="FPyB5lzsJbotzvCXSLYw-2" value="" style="group" vertex="1" connectable="0" parent="1">
          <mxGeometry x="427" y="305" width="229.5" height="168" as="geometry" />
        </mxCell>
        <mxCell id="YZDyfqU8U48T_e9WPzMG-62" value="" style="group;fontSize=14;fontFamily=Times New Roman;" parent="FPyB5lzsJbotzvCXSLYw-2" vertex="1" connectable="0">
          <mxGeometry x="34.5" width="180" height="130" as="geometry" />
        </mxCell>
        <mxCell id="YZDyfqU8U48T_e9WPzMG-63" value="" style="rounded=0;whiteSpace=wrap;html=1;dashed=1;fillColor=#f5f5f5;fontColor=#333333;strokeColor=#666666;fontSize=14;fontFamily=Times New Roman;" parent="YZDyfqU8U48T_e9WPzMG-62" vertex="1">
          <mxGeometry width="180" height="130" as="geometry" />
        </mxCell>
        <mxCell id="YZDyfqU8U48T_e9WPzMG-64" value="Layer 3" style="text;html=1;align=center;verticalAlign=middle;whiteSpace=wrap;rounded=0;fontSize=14;fontFamily=Times New Roman;" parent="YZDyfqU8U48T_e9WPzMG-62" vertex="1">
          <mxGeometry x="127" width="53" height="23" as="geometry" />
        </mxCell>
        <mxCell id="YZDyfqU8U48T_e9WPzMG-58" value="" style="group;fontSize=14;fontFamily=Times New Roman;" parent="FPyB5lzsJbotzvCXSLYw-2" vertex="1" connectable="0">
          <mxGeometry x="21.5" y="20" width="208" height="130" as="geometry" />
        </mxCell>
        <mxCell id="YZDyfqU8U48T_e9WPzMG-59" value="" style="rounded=0;whiteSpace=wrap;html=1;dashed=1;fillColor=#f5f5f5;fontColor=#333333;strokeColor=#666666;fontSize=14;fontFamily=Times New Roman;" parent="YZDyfqU8U48T_e9WPzMG-58" vertex="1">
          <mxGeometry width="180" height="130" as="geometry" />
        </mxCell>
        <mxCell id="YZDyfqU8U48T_e9WPzMG-60" value="Layer 2" style="text;html=1;align=center;verticalAlign=middle;whiteSpace=wrap;rounded=0;fontSize=14;fontFamily=Times New Roman;" parent="YZDyfqU8U48T_e9WPzMG-58" vertex="1">
          <mxGeometry x="127" width="53" height="23" as="geometry" />
        </mxCell>
        <mxCell id="YZDyfqU8U48T_e9WPzMG-45" value="" style="rounded=0;whiteSpace=wrap;html=1;dashed=1;fillColor=#f5f5f5;fontColor=#333333;strokeColor=#666666;fontSize=14;fontFamily=Times New Roman;" parent="FPyB5lzsJbotzvCXSLYw-2" vertex="1">
          <mxGeometry x="5.5" y="38" width="180" height="130" as="geometry" />
        </mxCell>
        <mxCell id="YZDyfqU8U48T_e9WPzMG-46" style="rounded=0;orthogonalLoop=1;jettySize=auto;html=1;exitX=0.5;exitY=0;exitDx=0;exitDy=0;entryX=0.5;entryY=1;entryDx=0;entryDy=0;fontSize=14;fontFamily=Times New Roman;" parent="FPyB5lzsJbotzvCXSLYw-2" source="YZDyfqU8U48T_e9WPzMG-47" target="YZDyfqU8U48T_e9WPzMG-50" edge="1">
          <mxGeometry relative="1" as="geometry" />
        </mxCell>
        <mxCell id="YZDyfqU8U48T_e9WPzMG-47" value="&lt;font&gt;i&lt;sub&gt;2&lt;/sub&gt;&lt;/font&gt;" style="ellipse;whiteSpace=wrap;html=1;aspect=fixed;fillColor=#f9f7ed;strokeColor=#36393d;fontSize=14;fontFamily=Times New Roman;" parent="FPyB5lzsJbotzvCXSLYw-2" vertex="1">
          <mxGeometry x="52.5" y="102" width="23" height="23" as="geometry" />
        </mxCell>
        <mxCell id="YZDyfqU8U48T_e9WPzMG-48" style="rounded=0;orthogonalLoop=1;jettySize=auto;html=1;exitX=0.5;exitY=0;exitDx=0;exitDy=0;entryX=0.5;entryY=1;entryDx=0;entryDy=0;fontSize=14;fontFamily=Times New Roman;" parent="FPyB5lzsJbotzvCXSLYw-2" source="YZDyfqU8U48T_e9WPzMG-49" target="YZDyfqU8U48T_e9WPzMG-50" edge="1">
          <mxGeometry relative="1" as="geometry" />
        </mxCell>
        <mxCell id="YZDyfqU8U48T_e9WPzMG-49" value="&lt;font&gt;i&lt;sub&gt;3&lt;/sub&gt;&lt;/font&gt;" style="ellipse;whiteSpace=wrap;html=1;aspect=fixed;fillColor=#f9f7ed;strokeColor=#36393d;fontSize=14;fontFamily=Times New Roman;" parent="FPyB5lzsJbotzvCXSLYw-2" vertex="1">
          <mxGeometry x="122.5" y="102" width="23" height="23" as="geometry" />
        </mxCell>
        <mxCell id="YZDyfqU8U48T_e9WPzMG-50" value="Normalized Sum" style="rounded=0;whiteSpace=wrap;html=1;dashed=1;strokeWidth=2;fillColor=#eeeeee;strokeColor=#36393d;fontSize=14;fontFamily=Times New Roman;" parent="FPyB5lzsJbotzvCXSLYw-2" vertex="1">
          <mxGeometry x="27.5" y="62" width="141" height="28" as="geometry" />
        </mxCell>
        <mxCell id="YZDyfqU8U48T_e9WPzMG-51" value="Layer 1" style="text;html=1;align=center;verticalAlign=middle;whiteSpace=wrap;rounded=0;fontSize=14;fontFamily=Times New Roman;" parent="FPyB5lzsJbotzvCXSLYw-2" vertex="1">
          <mxGeometry x="132.5" y="38" width="53" height="23" as="geometry" />
        </mxCell>
        <mxCell id="YZDyfqU8U48T_e9WPzMG-52" value="The selected&amp;nbsp;neighbors of u&lt;span&gt;&lt;sub&gt;1&lt;/sub&gt;&lt;/span&gt;" style="text;html=1;align=center;verticalAlign=middle;whiteSpace=wrap;rounded=0;fontSize=14;fontFamily=Times New Roman;" parent="FPyB5lzsJbotzvCXSLYw-2" vertex="1">
          <mxGeometry y="146" width="191" height="15" as="geometry" />
        </mxCell>
        <mxCell id="YZDyfqU8U48T_e9WPzMG-55" value="e&lt;sub&gt;i2&lt;/sub&gt;" style="text;html=1;align=center;verticalAlign=middle;whiteSpace=wrap;rounded=0;fontSize=14;fontFamily=Times New Roman;" parent="FPyB5lzsJbotzvCXSLYw-2" vertex="1">
          <mxGeometry x="34" y="128" width="60" height="12" as="geometry" />
        </mxCell>
        <mxCell id="YZDyfqU8U48T_e9WPzMG-57" value="e&lt;sub&gt;i3&lt;/sub&gt;" style="text;html=1;align=center;verticalAlign=middle;whiteSpace=wrap;rounded=0;fontSize=14;fontFamily=Times New Roman;" parent="FPyB5lzsJbotzvCXSLYw-2" vertex="1">
          <mxGeometry x="104" y="128" width="60" height="12" as="geometry" />
        </mxCell>
        <mxCell id="YZDyfqU8U48T_e9WPzMG-154" value="" style="rounded=1;whiteSpace=wrap;html=1;dashed=1;fillColor=none;fontSize=14;fontFamily=Times New Roman;" parent="1" vertex="1">
          <mxGeometry x="784" y="54" width="108" height="422" as="geometry" />
        </mxCell>
        <mxCell id="YZDyfqU8U48T_e9WPzMG-139" value="" style="rounded=1;whiteSpace=wrap;html=1;dashed=1;fillColor=none;fontSize=14;fontFamily=Times New Roman;" parent="1" vertex="1">
          <mxGeometry x="672" y="53" width="99" height="423" as="geometry" />
        </mxCell>
        <mxCell id="YZDyfqU8U48T_e9WPzMG-2" value="LightGCN" style="text;html=1;align=center;verticalAlign=middle;whiteSpace=wrap;rounded=0;fontSize=14;fontFamily=Times New Roman;" parent="1" vertex="1">
          <mxGeometry x="200" y="88" width="60" height="30" as="geometry" />
        </mxCell>
        <mxCell id="YZDyfqU8U48T_e9WPzMG-122" value="" style="verticalLabelPosition=bottom;verticalAlign=top;html=1;shape=mxgraph.flowchart.summing_function;fontSize=14;fontFamily=Times New Roman;" parent="1" vertex="1">
          <mxGeometry x="186" y="227" width="24" height="24" as="geometry" />
        </mxCell>
        <mxCell id="YZDyfqU8U48T_e9WPzMG-123" value="" style="verticalLabelPosition=bottom;verticalAlign=top;html=1;shape=mxgraph.flowchart.summing_function;fontSize=14;fontFamily=Times New Roman;" parent="1" vertex="1">
          <mxGeometry x="186" y="278" width="24" height="24" as="geometry" />
        </mxCell>
        <mxCell id="YZDyfqU8U48T_e9WPzMG-124" style="edgeStyle=orthogonalEdgeStyle;rounded=0;orthogonalLoop=1;jettySize=auto;html=1;exitX=0;exitY=0.5;exitDx=0;exitDy=0;fontSize=14;fontFamily=Times New Roman;" parent="1" source="YZDyfqU8U48T_e9WPzMG-109" target="YZDyfqU8U48T_e9WPzMG-123" edge="1">
          <mxGeometry relative="1" as="geometry" />
        </mxCell>
        <mxCell id="YZDyfqU8U48T_e9WPzMG-125" style="edgeStyle=orthogonalEdgeStyle;rounded=0;orthogonalLoop=1;jettySize=auto;html=1;exitX=0;exitY=0.5;exitDx=0;exitDy=0;entryX=1;entryY=0.5;entryDx=0;entryDy=0;entryPerimeter=0;fontSize=14;fontFamily=Times New Roman;" parent="1" source="YZDyfqU8U48T_e9WPzMG-104" target="YZDyfqU8U48T_e9WPzMG-122" edge="1">
          <mxGeometry relative="1" as="geometry" />
        </mxCell>
        <mxCell id="YZDyfqU8U48T_e9WPzMG-128" style="edgeStyle=orthogonalEdgeStyle;rounded=0;orthogonalLoop=1;jettySize=auto;html=1;exitX=1;exitY=0.5;exitDx=0;exitDy=0;entryX=1;entryY=0.5;entryDx=0;entryDy=0;entryPerimeter=0;fontSize=14;fontFamily=Times New Roman;" parent="1" source="YZDyfqU8U48T_e9WPzMG-65" target="YZDyfqU8U48T_e9WPzMG-123" edge="1">
          <mxGeometry relative="1" as="geometry" />
        </mxCell>
        <mxCell id="YZDyfqU8U48T_e9WPzMG-129" value="" style="verticalLabelPosition=bottom;verticalAlign=top;html=1;shape=mxgraph.flowchart.or;fontColor=none;strokeColor=default;strokeWidth=1;noLabel=1;fillColor=#FF9999;fontSize=14;fontFamily=Times New Roman;" parent="1" vertex="1">
          <mxGeometry x="119" y="254" width="24" height="24" as="geometry" />
        </mxCell>
        <mxCell id="YZDyfqU8U48T_e9WPzMG-130" value="Layer Combination&lt;div&gt;(weighted sum)&lt;/div&gt;" style="text;html=1;align=center;verticalAlign=middle;whiteSpace=wrap;rounded=0;fontColor=light-dark(#ff0000, #ededed);fontStyle=1;fontSize=14;fontFamily=Times New Roman;" parent="1" vertex="1">
          <mxGeometry x="96" y="305" width="221" height="30" as="geometry" />
        </mxCell>
        <mxCell id="YZDyfqU8U48T_e9WPzMG-131" style="rounded=0;orthogonalLoop=1;jettySize=auto;html=1;exitX=0;exitY=0.5;exitDx=0;exitDy=0;exitPerimeter=0;entryX=1;entryY=0.5;entryDx=0;entryDy=0;entryPerimeter=0;fontSize=14;fontFamily=Times New Roman;" parent="1" source="YZDyfqU8U48T_e9WPzMG-123" target="YZDyfqU8U48T_e9WPzMG-129" edge="1">
          <mxGeometry relative="1" as="geometry" />
        </mxCell>
        <mxCell id="YZDyfqU8U48T_e9WPzMG-133" style="rounded=0;orthogonalLoop=1;jettySize=auto;html=1;exitX=0;exitY=0.5;exitDx=0;exitDy=0;exitPerimeter=0;entryX=1;entryY=0.5;entryDx=0;entryDy=0;entryPerimeter=0;fontSize=14;fontFamily=Times New Roman;" parent="1" source="YZDyfqU8U48T_e9WPzMG-122" target="YZDyfqU8U48T_e9WPzMG-129" edge="1">
          <mxGeometry relative="1" as="geometry" />
        </mxCell>
        <mxCell id="YZDyfqU8U48T_e9WPzMG-134" value="&lt;font style=&quot;color: rgb(255, 51, 51);&quot;&gt;Prediction&lt;/font&gt;&lt;div&gt;&lt;font style=&quot;color: rgb(255, 51, 51);&quot;&gt;（&lt;span style=&quot;color: light-dark(rgb(255, 51, 51), rgb(255, 119, 119)); background-color: transparent;&quot;&gt;Loss Reweighting&lt;/span&gt;&lt;span style=&quot;color: light-dark(rgb(255, 51, 51), rgb(255, 119, 119)); background-color: transparent;&quot;&gt;）&lt;/span&gt;&lt;br&gt;&lt;/font&gt;&lt;/div&gt;" style="text;html=1;align=center;verticalAlign=middle;whiteSpace=wrap;rounded=0;fontStyle=1;fontSize=14;fontFamily=Times New Roman;" parent="1" vertex="1">
          <mxGeometry x="29" y="209" width="204" height="30" as="geometry" />
        </mxCell>
        <mxCell id="lJCOSlguc7DDzx-sOhFj-3" style="edgeStyle=orthogonalEdgeStyle;rounded=0;orthogonalLoop=1;jettySize=auto;html=1;exitX=0.5;exitY=1;exitDx=0;exitDy=0;entryX=0.5;entryY=0;entryDx=0;entryDy=0;fontSize=14;fontFamily=Times New Roman;" parent="1" source="YZDyfqU8U48T_e9WPzMG-137" target="YZDyfqU8U48T_e9WPzMG-147" edge="1">
          <mxGeometry relative="1" as="geometry" />
        </mxCell>
        <mxCell id="YZDyfqU8U48T_e9WPzMG-137" value="&lt;div&gt;&lt;span style=&quot;color: rgb(0, 0, 0); background-color: rgb(251, 251, 251); float: none; display: inline !important;&quot;&gt;&lt;font&gt;embedding&lt;/font&gt;&lt;/span&gt;&lt;/div&gt;" style="rounded=0;whiteSpace=wrap;html=1;fontSize=14;fontFamily=Times New Roman;" parent="1" vertex="1">
          <mxGeometry x="951.5" y="305" width="100" height="50" as="geometry" />
        </mxCell>
        <mxCell id="YZDyfqU8U48T_e9WPzMG-140" value="First-stage selection" style="text;html=1;align=center;verticalAlign=middle;whiteSpace=wrap;rounded=0;fontSize=14;fontFamily=Times New Roman;" parent="1" vertex="1">
          <mxGeometry x="799" y="32" width="84" height="78" as="geometry" />
        </mxCell>
        <mxCell id="YZDyfqU8U48T_e9WPzMG-166" style="edgeStyle=orthogonalEdgeStyle;rounded=0;orthogonalLoop=1;jettySize=auto;html=1;exitX=0;exitY=0.5;exitDx=0;exitDy=0;entryX=0.989;entryY=0.902;entryDx=0;entryDy=0;fontSize=14;fontFamily=Times New Roman;entryPerimeter=0;" parent="1" source="YZDyfqU8U48T_e9WPzMG-147" target="YZDyfqU8U48T_e9WPzMG-165" edge="1">
          <mxGeometry relative="1" as="geometry" />
        </mxCell>
        <mxCell id="YZDyfqU8U48T_e9WPzMG-167" value="PageRank" style="edgeLabel;html=1;align=center;verticalAlign=middle;resizable=0;points=[];fontSize=14;fontFamily=Times New Roman;" parent="YZDyfqU8U48T_e9WPzMG-166" vertex="1" connectable="0">
          <mxGeometry x="-0.1908" y="-1" relative="1" as="geometry">
            <mxPoint as="offset" />
          </mxGeometry>
        </mxCell>
        <mxCell id="YZDyfqU8U48T_e9WPzMG-147" value="&lt;h4 style=&quot;forced-color-adjust: none; font-style: normal; font-variant-caps: normal; letter-spacing: normal; orphans: 2; text-indent: 0px; text-transform: none; widows: 2; word-spacing: 0px; -webkit-text-stroke-width: 0px; white-space: normal; text-decoration-thickness: initial; text-decoration-style: initial; text-decoration-color: initial; box-sizing: border-box; outline: 0px; margin: 24px 0px 8px; padding: 0px; --el-button-hover-bg-color: light-dark(#6d5ffd, #8e82ff); --el-button-hover-border-color: light-dark(#6d5ffd, #8e82ff); --el-button-active-bg-color: light-dark(#6d5ffd, #8e82ff); --el-button-active-border-color: light-dark(#6d5ffd, #8e82ff); color: rgb(79, 79, 79); line-height: 26px; font-synthesis-style: auto; overflow-wrap: break-word; font-variant-ligatures: no-common-ligatures; background-color: rgb(255, 255, 255);&quot;&gt;&lt;span style=&quot;font-weight: normal;&quot;&gt;&lt;font&gt;attention coefficient&lt;/font&gt;&lt;/span&gt;&lt;/h4&gt;&lt;div&gt;&lt;br&gt;&lt;/div&gt;" style="rounded=1;whiteSpace=wrap;html=1;fontSize=14;fontFamily=Times New Roman;align=center;" parent="1" vertex="1">
          <mxGeometry x="967" y="384" width="69" height="86" as="geometry" />
        </mxCell>
        <mxCell id="YZDyfqU8U48T_e9WPzMG-153" value="Second-stage selection" style="text;html=1;align=center;verticalAlign=middle;whiteSpace=wrap;rounded=0;fontSize=14;fontFamily=Times New Roman;" parent="1" vertex="1">
          <mxGeometry x="672" y="32" width="96" height="78" as="geometry" />
        </mxCell>
        <mxCell id="YZDyfqU8U48T_e9WPzMG-165" value="&lt;span style=&quot;color: rgb(0, 0, 0); font-style: normal; font-variant-ligatures: normal; font-variant-caps: normal; font-weight: 400; letter-spacing: normal; orphans: 2; text-align: start; text-indent: 0px; text-transform: none; widows: 2; word-spacing: 0px; -webkit-text-stroke-width: 0px; white-space: normal; background-color: rgb(251, 251, 251); text-decoration-thickness: initial; text-decoration-style: initial; text-decoration-color: initial; float: none; display: inline !important;&quot;&gt;Selection based on vector spatial features (MERW)&lt;/span&gt;" style="rounded=1;whiteSpace=wrap;html=1;fontSize=14;fontFamily=Times New Roman;" parent="1" vertex="1">
          <mxGeometry x="830" y="87" width="53" height="376" as="geometry" />
        </mxCell>
        <mxCell id="YZDyfqU8U48T_e9WPzMG-235" style="edgeStyle=orthogonalEdgeStyle;rounded=0;orthogonalLoop=1;jettySize=auto;html=1;exitX=0.5;exitY=0;exitDx=0;exitDy=0;entryX=1;entryY=0.75;entryDx=0;entryDy=0;fontSize=14;fontFamily=Times New Roman;" parent="1" source="YZDyfqU8U48T_e9WPzMG-105" target="YZDyfqU8U48T_e9WPzMG-36" edge="1">
          <mxGeometry relative="1" as="geometry" />
        </mxCell>
        <mxCell id="YZDyfqU8U48T_e9WPzMG-237" style="edgeStyle=orthogonalEdgeStyle;rounded=0;orthogonalLoop=1;jettySize=auto;html=1;exitX=0.5;exitY=1;exitDx=0;exitDy=0;entryX=1;entryY=0.75;entryDx=0;entryDy=0;fontSize=14;fontFamily=Times New Roman;" parent="1" source="YZDyfqU8U48T_e9WPzMG-110" target="YZDyfqU8U48T_e9WPzMG-63" edge="1">
          <mxGeometry relative="1" as="geometry" />
        </mxCell>
        <mxCell id="lJCOSlguc7DDzx-sOhFj-6" style="edgeStyle=orthogonalEdgeStyle;rounded=0;orthogonalLoop=1;jettySize=auto;html=1;exitX=0.5;exitY=1;exitDx=0;exitDy=0;entryX=0.5;entryY=0;entryDx=0;entryDy=0;fontFamily=Times New Roman;fontSize=14;" parent="1" source="lJCOSlguc7DDzx-sOhFj-5" target="YZDyfqU8U48T_e9WPzMG-137" edge="1">
          <mxGeometry relative="1" as="geometry" />
        </mxCell>
        <mxCell id="lJCOSlguc7DDzx-sOhFj-7" value="&lt;span&gt;&lt;font&gt;weight reWrite&lt;/font&gt;&lt;/span&gt;" style="edgeLabel;html=1;align=center;verticalAlign=middle;resizable=0;points=[];fontFamily=Times New Roman;fontSize=14;" parent="lJCOSlguc7DDzx-sOhFj-6" vertex="1" connectable="0">
          <mxGeometry x="0.4353" y="2" relative="1" as="geometry">
            <mxPoint x="35" y="-56" as="offset" />
          </mxGeometry>
        </mxCell>
        <mxCell id="lJCOSlguc7DDzx-sOhFj-5" value="&lt;font&gt;Raw&lt;/font&gt;" style="rounded=0;whiteSpace=wrap;html=1;fontSize=14;fontFamily=Times New Roman;" parent="1" vertex="1">
          <mxGeometry x="911" y="87" width="54" height="50" as="geometry" />
        </mxCell>
        <mxCell id="zP14yPHalmkNqVkcghxw-1" value="&lt;font&gt;RAG Data&lt;/font&gt;" style="rounded=0;whiteSpace=wrap;html=1;fontSize=14;fontFamily=Times New Roman;" parent="1" vertex="1">
          <mxGeometry x="998" y="87" width="75" height="50" as="geometry" />
        </mxCell>
        <mxCell id="FPyB5lzsJbotzvCXSLYw-1" value="" style="group" vertex="1" connectable="0" parent="1">
          <mxGeometry x="374" y="61" width="253" height="166" as="geometry" />
        </mxCell>
        <mxCell id="YZDyfqU8U48T_e9WPzMG-35" value="" style="group;fontSize=14;fontFamily=Times New Roman;" parent="FPyB5lzsJbotzvCXSLYw-1" vertex="1" connectable="0">
          <mxGeometry x="73" width="180" height="130" as="geometry" />
        </mxCell>
        <mxCell id="YZDyfqU8U48T_e9WPzMG-36" value="" style="rounded=0;whiteSpace=wrap;html=1;dashed=1;fillColor=#f5f5f5;fontColor=#333333;strokeColor=#666666;fontSize=14;fontFamily=Times New Roman;" parent="YZDyfqU8U48T_e9WPzMG-35" vertex="1">
          <mxGeometry width="180" height="130" as="geometry" />
        </mxCell>
        <mxCell id="YZDyfqU8U48T_e9WPzMG-37" value="Layer 3" style="text;html=1;align=center;verticalAlign=middle;whiteSpace=wrap;rounded=0;fontSize=14;fontFamily=Times New Roman;" parent="YZDyfqU8U48T_e9WPzMG-35" vertex="1">
          <mxGeometry x="127" width="53" height="23" as="geometry" />
        </mxCell>
        <mxCell id="YZDyfqU8U48T_e9WPzMG-30" value="" style="group;fontSize=14;fontFamily=Times New Roman;" parent="FPyB5lzsJbotzvCXSLYw-1" vertex="1" connectable="0">
          <mxGeometry x="60" y="18" width="180" height="130" as="geometry" />
        </mxCell>
        <mxCell id="YZDyfqU8U48T_e9WPzMG-27" value="" style="rounded=0;whiteSpace=wrap;html=1;dashed=1;fillColor=#f5f5f5;fontColor=#333333;strokeColor=#666666;fontSize=14;fontFamily=Times New Roman;" parent="YZDyfqU8U48T_e9WPzMG-30" vertex="1">
          <mxGeometry x="6" width="180" height="130" as="geometry" />
        </mxCell>
        <mxCell id="YZDyfqU8U48T_e9WPzMG-28" value="Layer 2" style="text;html=1;align=center;verticalAlign=middle;whiteSpace=wrap;rounded=0;fontSize=14;fontFamily=Times New Roman;" parent="YZDyfqU8U48T_e9WPzMG-30" vertex="1">
          <mxGeometry x="127" width="53" height="23" as="geometry" />
        </mxCell>
        <mxCell id="YZDyfqU8U48T_e9WPzMG-23" value="e&lt;sub&gt;u2&lt;/sub&gt;" style="text;html=1;align=center;verticalAlign=middle;whiteSpace=wrap;rounded=0;fontSize=14;fontFamily=Times New Roman;" parent="YZDyfqU8U48T_e9WPzMG-30" vertex="1">
          <mxGeometry x="16" y="115" width="60" height="11" as="geometry" />
        </mxCell>
        <mxCell id="YZDyfqU8U48T_e9WPzMG-13" value="" style="rounded=0;whiteSpace=wrap;html=1;dashed=1;fillColor=#f5f5f5;fontColor=#333333;strokeColor=#666666;fontSize=14;fontFamily=Times New Roman;" parent="FPyB5lzsJbotzvCXSLYw-1" vertex="1">
          <mxGeometry x="50" y="36" width="180" height="130" as="geometry" />
        </mxCell>
        <mxCell id="YZDyfqU8U48T_e9WPzMG-21" style="rounded=0;orthogonalLoop=1;jettySize=auto;html=1;exitX=0.5;exitY=0;exitDx=0;exitDy=0;entryX=0.5;entryY=1;entryDx=0;entryDy=0;fontSize=14;fontFamily=Times New Roman;" parent="FPyB5lzsJbotzvCXSLYw-1" source="YZDyfqU8U48T_e9WPzMG-16" target="YZDyfqU8U48T_e9WPzMG-18" edge="1">
          <mxGeometry relative="1" as="geometry" />
        </mxCell>
        <mxCell id="YZDyfqU8U48T_e9WPzMG-16" value="&lt;font&gt;u&lt;sub&gt;2&lt;/sub&gt;&lt;/font&gt;" style="ellipse;whiteSpace=wrap;html=1;aspect=fixed;fillColor=#dae8fc;strokeColor=#6c8ebf;fontSize=14;fontFamily=Times New Roman;" parent="FPyB5lzsJbotzvCXSLYw-1" vertex="1">
          <mxGeometry x="92" y="104" width="23" height="23" as="geometry" />
        </mxCell>
        <mxCell id="YZDyfqU8U48T_e9WPzMG-22" style="rounded=0;orthogonalLoop=1;jettySize=auto;html=1;exitX=0.5;exitY=0;exitDx=0;exitDy=0;entryX=0.5;entryY=1;entryDx=0;entryDy=0;fontSize=14;fontFamily=Times New Roman;" parent="FPyB5lzsJbotzvCXSLYw-1" source="YZDyfqU8U48T_e9WPzMG-17" target="YZDyfqU8U48T_e9WPzMG-18" edge="1">
          <mxGeometry relative="1" as="geometry" />
        </mxCell>
        <mxCell id="YZDyfqU8U48T_e9WPzMG-17" value="&lt;font&gt;u&lt;sub&gt;3&lt;/sub&gt;&lt;/font&gt;" style="ellipse;whiteSpace=wrap;html=1;aspect=fixed;fillColor=#dae8fc;strokeColor=#6c8ebf;fontSize=14;fontFamily=Times New Roman;" parent="FPyB5lzsJbotzvCXSLYw-1" vertex="1">
          <mxGeometry x="162" y="104" width="23" height="23" as="geometry" />
        </mxCell>
        <mxCell id="YZDyfqU8U48T_e9WPzMG-18" value="Normalized Sum" style="rounded=0;whiteSpace=wrap;html=1;dashed=1;strokeWidth=2;fillColor=#eeeeee;strokeColor=#36393d;fontSize=14;fontFamily=Times New Roman;" parent="FPyB5lzsJbotzvCXSLYw-1" vertex="1">
          <mxGeometry x="67" y="60" width="141" height="28" as="geometry" />
        </mxCell>
        <mxCell id="YZDyfqU8U48T_e9WPzMG-24" value="e&lt;sub&gt;u3&lt;/sub&gt;" style="text;html=1;align=center;verticalAlign=middle;whiteSpace=wrap;rounded=0;fontSize=14;fontFamily=Times New Roman;" parent="FPyB5lzsJbotzvCXSLYw-1" vertex="1">
          <mxGeometry x="144.5" y="132" width="60" height="12" as="geometry" />
        </mxCell>
        <mxCell id="YZDyfqU8U48T_e9WPzMG-25" value="Layer 1" style="text;html=1;align=center;verticalAlign=middle;whiteSpace=wrap;rounded=0;fontSize=14;fontFamily=Times New Roman;" parent="FPyB5lzsJbotzvCXSLYw-1" vertex="1">
          <mxGeometry x="172" y="36" width="53" height="23" as="geometry" />
        </mxCell>
        <mxCell id="YZDyfqU8U48T_e9WPzMG-26" value="The selected&amp;nbsp;neighbors&amp;nbsp; of i&lt;sub&gt;4&lt;/sub&gt;" style="text;html=1;align=center;verticalAlign=middle;whiteSpace=wrap;rounded=0;fontSize=14;fontFamily=Times New Roman;" parent="FPyB5lzsJbotzvCXSLYw-1" vertex="1">
          <mxGeometry x="48.5" y="148" width="177.5" height="15" as="geometry" />
        </mxCell>
        <mxCell id="YZDyfqU8U48T_e9WPzMG-54" value="e&lt;sub&gt;u2&lt;/sub&gt;" style="text;html=1;align=center;verticalAlign=middle;whiteSpace=wrap;rounded=0;fontSize=14;fontFamily=Times New Roman;" parent="FPyB5lzsJbotzvCXSLYw-1" vertex="1">
          <mxGeometry x="75" y="131" width="60" height="12" as="geometry" />
        </mxCell>
        <mxCell id="FPyB5lzsJbotzvCXSLYw-3" value="" style="group" vertex="1" connectable="0" parent="1">
          <mxGeometry x="240" y="349" width="161" height="88" as="geometry" />
        </mxCell>
        <mxCell id="YZDyfqU8U48T_e9WPzMG-65" value="" style="shape=parallelogram;perimeter=parallelogramPerimeter;whiteSpace=wrap;html=1;fixedSize=1;fillColor=#cce5ff;strokeColor=#36393d;dashed=1;gradientColor=none;fontSize=14;fontFamily=Times New Roman;" parent="FPyB5lzsJbotzvCXSLYw-3" vertex="1">
          <mxGeometry x="32.5" y="4" width="128.5" height="84" as="geometry" />
        </mxCell>
        <mxCell id="YZDyfqU8U48T_e9WPzMG-70" value="" style="group;fontSize=14;fontFamily=Times New Roman;" parent="FPyB5lzsJbotzvCXSLYw-3" vertex="1" connectable="0">
          <mxGeometry x="57" y="62" width="54" height="18" as="geometry" />
        </mxCell>
        <mxCell id="YZDyfqU8U48T_e9WPzMG-67" value="" style="whiteSpace=wrap;html=1;aspect=fixed;fontSize=14;fontFamily=Times New Roman;" parent="YZDyfqU8U48T_e9WPzMG-70" vertex="1">
          <mxGeometry width="18" height="18" as="geometry" />
        </mxCell>
        <mxCell id="YZDyfqU8U48T_e9WPzMG-68" value="" style="whiteSpace=wrap;html=1;aspect=fixed;fontSize=14;fontFamily=Times New Roman;" parent="YZDyfqU8U48T_e9WPzMG-70" vertex="1">
          <mxGeometry x="18" width="18" height="18" as="geometry" />
        </mxCell>
        <mxCell id="YZDyfqU8U48T_e9WPzMG-69" value="" style="whiteSpace=wrap;html=1;aspect=fixed;fontSize=14;fontFamily=Times New Roman;" parent="YZDyfqU8U48T_e9WPzMG-70" vertex="1">
          <mxGeometry x="36" width="18" height="18" as="geometry" />
        </mxCell>
        <mxCell id="YZDyfqU8U48T_e9WPzMG-75" value="" style="group;fontSize=14;fontFamily=Times New Roman;" parent="FPyB5lzsJbotzvCXSLYw-3" vertex="1" connectable="0">
          <mxGeometry x="73" y="34" width="54" height="18" as="geometry" />
        </mxCell>
        <mxCell id="YZDyfqU8U48T_e9WPzMG-76" value="" style="whiteSpace=wrap;html=1;aspect=fixed;fontSize=14;fontFamily=Times New Roman;" parent="YZDyfqU8U48T_e9WPzMG-75" vertex="1">
          <mxGeometry width="18" height="18" as="geometry" />
        </mxCell>
        <mxCell id="YZDyfqU8U48T_e9WPzMG-77" value="" style="whiteSpace=wrap;html=1;aspect=fixed;fontSize=14;fontFamily=Times New Roman;" parent="YZDyfqU8U48T_e9WPzMG-75" vertex="1">
          <mxGeometry x="18" width="18" height="18" as="geometry" />
        </mxCell>
        <mxCell id="YZDyfqU8U48T_e9WPzMG-78" value="" style="whiteSpace=wrap;html=1;aspect=fixed;fontSize=14;fontFamily=Times New Roman;" parent="YZDyfqU8U48T_e9WPzMG-75" vertex="1">
          <mxGeometry x="36" width="18" height="18" as="geometry" />
        </mxCell>
        <mxCell id="YZDyfqU8U48T_e9WPzMG-79" value="" style="group;fontSize=14;fontFamily=Times New Roman;" parent="FPyB5lzsJbotzvCXSLYw-3" vertex="1" connectable="0">
          <mxGeometry x="86" y="6" width="54" height="18" as="geometry" />
        </mxCell>
        <mxCell id="YZDyfqU8U48T_e9WPzMG-80" value="" style="whiteSpace=wrap;html=1;aspect=fixed;fontSize=14;fontFamily=Times New Roman;" parent="YZDyfqU8U48T_e9WPzMG-79" vertex="1">
          <mxGeometry width="18" height="18" as="geometry" />
        </mxCell>
        <mxCell id="YZDyfqU8U48T_e9WPzMG-81" value="" style="whiteSpace=wrap;html=1;aspect=fixed;fontSize=14;fontFamily=Times New Roman;" parent="YZDyfqU8U48T_e9WPzMG-79" vertex="1">
          <mxGeometry x="18" width="18" height="18" as="geometry" />
        </mxCell>
        <mxCell id="YZDyfqU8U48T_e9WPzMG-82" value="" style="whiteSpace=wrap;html=1;aspect=fixed;fontSize=14;fontFamily=Times New Roman;" parent="YZDyfqU8U48T_e9WPzMG-79" vertex="1">
          <mxGeometry x="36" width="18" height="18" as="geometry" />
        </mxCell>
        <mxCell id="YZDyfqU8U48T_e9WPzMG-83" value="e&lt;sup&gt;(1)&lt;/sup&gt;&lt;sub&gt;u1&lt;/sub&gt;" style="text;html=1;align=center;verticalAlign=middle;whiteSpace=wrap;rounded=0;fontSize=14;fontFamily=Times New Roman;" parent="FPyB5lzsJbotzvCXSLYw-3" vertex="1">
          <mxGeometry y="56" width="60" height="30" as="geometry" />
        </mxCell>
        <mxCell id="YZDyfqU8U48T_e9WPzMG-84" value="e&lt;sup&gt;(2)&lt;/sup&gt;&lt;sub&gt;u1&lt;/sub&gt;" style="text;html=1;align=center;verticalAlign=middle;whiteSpace=wrap;rounded=0;fontSize=14;fontFamily=Times New Roman;" parent="FPyB5lzsJbotzvCXSLYw-3" vertex="1">
          <mxGeometry x="8" y="27" width="60" height="30" as="geometry" />
        </mxCell>
        <mxCell id="YZDyfqU8U48T_e9WPzMG-85" value="e&lt;sup&gt;(3)&lt;/sup&gt;&lt;sub&gt;u1&lt;/sub&gt;" style="text;html=1;align=center;verticalAlign=middle;whiteSpace=wrap;rounded=0;fontSize=14;fontFamily=Times New Roman;" parent="FPyB5lzsJbotzvCXSLYw-3" vertex="1">
          <mxGeometry x="19.5" width="60" height="30" as="geometry" />
        </mxCell>
        <mxCell id="FPyB5lzsJbotzvCXSLYw-4" value="" style="group" vertex="1" connectable="0" parent="1">
          <mxGeometry x="275" y="122" width="161" height="89" as="geometry" />
        </mxCell>
        <mxCell id="YZDyfqU8U48T_e9WPzMG-86" value="" style="shape=parallelogram;perimeter=parallelogramPerimeter;whiteSpace=wrap;html=1;fixedSize=1;fillColor=#cce5ff;strokeColor=#36393d;dashed=1;gradientColor=none;fontSize=14;fontFamily=Times New Roman;" parent="FPyB5lzsJbotzvCXSLYw-4" vertex="1">
          <mxGeometry y="3" width="128.5" height="84" as="geometry" />
        </mxCell>
        <mxCell id="YZDyfqU8U48T_e9WPzMG-87" value="" style="group;fontSize=14;fontFamily=Times New Roman;" parent="FPyB5lzsJbotzvCXSLYw-4" vertex="1" connectable="0">
          <mxGeometry x="24.5" y="61" width="54" height="18" as="geometry" />
        </mxCell>
        <mxCell id="YZDyfqU8U48T_e9WPzMG-88" value="" style="whiteSpace=wrap;html=1;aspect=fixed;fontSize=14;fontFamily=Times New Roman;" parent="YZDyfqU8U48T_e9WPzMG-87" vertex="1">
          <mxGeometry width="18" height="18" as="geometry" />
        </mxCell>
        <mxCell id="YZDyfqU8U48T_e9WPzMG-89" value="" style="whiteSpace=wrap;html=1;aspect=fixed;fontSize=14;fontFamily=Times New Roman;" parent="YZDyfqU8U48T_e9WPzMG-87" vertex="1">
          <mxGeometry x="18" width="18" height="18" as="geometry" />
        </mxCell>
        <mxCell id="YZDyfqU8U48T_e9WPzMG-90" value="" style="whiteSpace=wrap;html=1;aspect=fixed;fontSize=14;fontFamily=Times New Roman;" parent="YZDyfqU8U48T_e9WPzMG-87" vertex="1">
          <mxGeometry x="36" width="18" height="18" as="geometry" />
        </mxCell>
        <mxCell id="YZDyfqU8U48T_e9WPzMG-91" value="" style="group;fontSize=14;fontFamily=Times New Roman;" parent="FPyB5lzsJbotzvCXSLYw-4" vertex="1" connectable="0">
          <mxGeometry x="41.5" y="32" width="54" height="18" as="geometry" />
        </mxCell>
        <mxCell id="YZDyfqU8U48T_e9WPzMG-92" value="" style="whiteSpace=wrap;html=1;aspect=fixed;fontSize=14;fontFamily=Times New Roman;" parent="YZDyfqU8U48T_e9WPzMG-91" vertex="1">
          <mxGeometry width="18" height="18" as="geometry" />
        </mxCell>
        <mxCell id="YZDyfqU8U48T_e9WPzMG-93" value="" style="whiteSpace=wrap;html=1;aspect=fixed;fontSize=14;fontFamily=Times New Roman;" parent="YZDyfqU8U48T_e9WPzMG-91" vertex="1">
          <mxGeometry x="18" width="18" height="18" as="geometry" />
        </mxCell>
        <mxCell id="YZDyfqU8U48T_e9WPzMG-94" value="" style="whiteSpace=wrap;html=1;aspect=fixed;fontSize=14;fontFamily=Times New Roman;" parent="YZDyfqU8U48T_e9WPzMG-91" vertex="1">
          <mxGeometry x="36" width="18" height="18" as="geometry" />
        </mxCell>
        <mxCell id="YZDyfqU8U48T_e9WPzMG-95" value="" style="group;fontSize=14;fontFamily=Times New Roman;" parent="FPyB5lzsJbotzvCXSLYw-4" vertex="1" connectable="0">
          <mxGeometry x="53.5" y="5" width="54" height="18" as="geometry" />
        </mxCell>
        <mxCell id="YZDyfqU8U48T_e9WPzMG-96" value="" style="whiteSpace=wrap;html=1;aspect=fixed;fontSize=14;fontFamily=Times New Roman;" parent="YZDyfqU8U48T_e9WPzMG-95" vertex="1">
          <mxGeometry width="18" height="18" as="geometry" />
        </mxCell>
        <mxCell id="YZDyfqU8U48T_e9WPzMG-97" value="" style="whiteSpace=wrap;html=1;aspect=fixed;fontSize=14;fontFamily=Times New Roman;" parent="YZDyfqU8U48T_e9WPzMG-95" vertex="1">
          <mxGeometry x="18" width="18" height="18" as="geometry" />
        </mxCell>
        <mxCell id="YZDyfqU8U48T_e9WPzMG-98" value="" style="whiteSpace=wrap;html=1;aspect=fixed;fontSize=14;fontFamily=Times New Roman;" parent="YZDyfqU8U48T_e9WPzMG-95" vertex="1">
          <mxGeometry x="36" width="18" height="18" as="geometry" />
        </mxCell>
        <mxCell id="YZDyfqU8U48T_e9WPzMG-99" value="e&lt;sup&gt;(1)&lt;/sup&gt;&lt;sub&gt;i4&lt;/sub&gt;" style="text;html=1;align=center;verticalAlign=middle;whiteSpace=wrap;rounded=0;fontSize=14;fontFamily=Times New Roman;" parent="FPyB5lzsJbotzvCXSLYw-4" vertex="1">
          <mxGeometry x="-32" y="50" width="60" height="30" as="geometry" />
        </mxCell>
        <mxCell id="YZDyfqU8U48T_e9WPzMG-100" value="e&lt;sup&gt;(2)&lt;/sup&gt;&lt;sub&gt;i4&lt;/sub&gt;" style="text;html=1;align=center;verticalAlign=middle;whiteSpace=wrap;rounded=0;fontSize=14;fontFamily=Times New Roman;" parent="FPyB5lzsJbotzvCXSLYw-4" vertex="1">
          <mxGeometry x="-21" y="23" width="60" height="30" as="geometry" />
        </mxCell>
        <mxCell id="YZDyfqU8U48T_e9WPzMG-101" value="e&lt;sup&gt;(3)&lt;/sup&gt;&lt;sub&gt;i4&lt;/sub&gt;" style="text;html=1;align=center;verticalAlign=middle;whiteSpace=wrap;rounded=0;fontSize=14;fontFamily=Times New Roman;" parent="FPyB5lzsJbotzvCXSLYw-4" vertex="1">
          <mxGeometry x="-6.5" y="-4" width="60" height="30" as="geometry" />
        </mxCell>
        <mxCell id="FPyB5lzsJbotzvCXSLYw-5" value="" style="group" vertex="1" connectable="0" parent="1">
          <mxGeometry x="610" y="211" width="124" height="37" as="geometry" />
        </mxCell>
        <mxCell id="YZDyfqU8U48T_e9WPzMG-103" value="w" style="group;fontSize=14;fontFamily=Times New Roman;" parent="FPyB5lzsJbotzvCXSLYw-5" vertex="1" connectable="0">
          <mxGeometry x="68" y="19" width="78" height="18" as="geometry" />
        </mxCell>
        <mxCell id="YZDyfqU8U48T_e9WPzMG-104" value="" style="whiteSpace=wrap;html=1;aspect=fixed;fontSize=14;fontFamily=Times New Roman;" parent="YZDyfqU8U48T_e9WPzMG-103" vertex="1">
          <mxGeometry width="18" height="18" as="geometry" />
        </mxCell>
        <mxCell id="YZDyfqU8U48T_e9WPzMG-105" value="" style="whiteSpace=wrap;html=1;aspect=fixed;fontSize=14;fontFamily=Times New Roman;" parent="YZDyfqU8U48T_e9WPzMG-103" vertex="1">
          <mxGeometry x="18" width="18" height="18" as="geometry" />
        </mxCell>
        <mxCell id="YZDyfqU8U48T_e9WPzMG-106" value="" style="whiteSpace=wrap;html=1;aspect=fixed;fontSize=14;fontFamily=Times New Roman;" parent="YZDyfqU8U48T_e9WPzMG-103" vertex="1">
          <mxGeometry x="36" width="18" height="18" as="geometry" />
        </mxCell>
        <mxCell id="FPyB5lzsJbotzvCXSLYw-6" value="" style="group" vertex="1" connectable="0" parent="1">
          <mxGeometry x="677" y="259" width="104" height="39" as="geometry" />
        </mxCell>
        <mxCell id="YZDyfqU8U48T_e9WPzMG-108" value="" style="group;fontSize=14;fontFamily=Times New Roman;" parent="FPyB5lzsJbotzvCXSLYw-6" vertex="1" connectable="0">
          <mxGeometry y="21" width="54" height="18" as="geometry" />
        </mxCell>
        <mxCell id="YZDyfqU8U48T_e9WPzMG-109" value="" style="whiteSpace=wrap;html=1;aspect=fixed;fontSize=14;fontFamily=Times New Roman;" parent="YZDyfqU8U48T_e9WPzMG-108" vertex="1">
          <mxGeometry width="18" height="18" as="geometry" />
        </mxCell>
        <mxCell id="YZDyfqU8U48T_e9WPzMG-110" value="" style="whiteSpace=wrap;html=1;aspect=fixed;fontSize=14;fontFamily=Times New Roman;" parent="YZDyfqU8U48T_e9WPzMG-108" vertex="1">
          <mxGeometry x="18" width="18" height="18" as="geometry" />
        </mxCell>
        <mxCell id="YZDyfqU8U48T_e9WPzMG-111" value="" style="whiteSpace=wrap;html=1;aspect=fixed;fontSize=14;fontFamily=Times New Roman;" parent="YZDyfqU8U48T_e9WPzMG-108" vertex="1">
          <mxGeometry x="36" width="18" height="18" as="geometry" />
        </mxCell>
        <mxCell id="YZDyfqU8U48T_e9WPzMG-113" value="e&lt;sup&gt;(0)&lt;/sup&gt;&lt;sub&gt;u1&lt;/sub&gt;" style="text;html=1;align=center;verticalAlign=middle;whiteSpace=wrap;rounded=0;fontSize=14;fontFamily=Times New Roman;" parent="FPyB5lzsJbotzvCXSLYw-6" vertex="1">
          <mxGeometry x="36" y="-4" width="60" height="30" as="geometry" />
        </mxCell>
        <mxCell id="YZDyfqU8U48T_e9WPzMG-116" style="rounded=0;orthogonalLoop=1;jettySize=auto;html=1;exitX=0;exitY=0.077;exitDx=0;exitDy=0;fontSize=14;fontFamily=Times New Roman;exitPerimeter=0;edgeStyle=orthogonalEdgeStyle;entryX=1;entryY=0.5;entryDx=0;entryDy=0;" parent="1" source="YZDyfqU8U48T_e9WPzMG-27" target="YZDyfqU8U48T_e9WPzMG-94" edge="1">
          <mxGeometry relative="1" as="geometry">
            <mxPoint x="417" y="145" as="targetPoint" />
          </mxGeometry>
        </mxCell>
        <mxCell id="YZDyfqU8U48T_e9WPzMG-117" style="edgeStyle=orthogonalEdgeStyle;rounded=0;orthogonalLoop=1;jettySize=auto;html=1;exitX=0.005;exitY=0.072;exitDx=0;exitDy=0;fontSize=14;fontFamily=Times New Roman;exitPerimeter=0;entryX=1;entryY=0.5;entryDx=0;entryDy=0;" parent="1" source="YZDyfqU8U48T_e9WPzMG-36" target="YZDyfqU8U48T_e9WPzMG-98" edge="1">
          <mxGeometry relative="1" as="geometry">
            <mxPoint x="381" y="82" as="targetPoint" />
          </mxGeometry>
        </mxCell>
        <mxCell id="YZDyfqU8U48T_e9WPzMG-135" value="embedding Propagation" style="text;html=1;align=center;verticalAlign=middle;whiteSpace=wrap;rounded=0;fontSize=14;fontFamily=Times New Roman;" parent="1" vertex="1">
          <mxGeometry x="487" y="248" width="60" height="30" as="geometry" />
        </mxCell>
        <mxCell id="YZDyfqU8U48T_e9WPzMG-118" style="edgeStyle=orthogonalEdgeStyle;rounded=0;orthogonalLoop=1;jettySize=auto;html=1;exitX=-0.007;exitY=0.117;exitDx=0;exitDy=0;entryX=1;entryY=0.5;entryDx=0;entryDy=0;fontSize=14;fontFamily=Times New Roman;exitPerimeter=0;" parent="1" source="YZDyfqU8U48T_e9WPzMG-45" target="YZDyfqU8U48T_e9WPzMG-69" edge="1">
          <mxGeometry relative="1" as="geometry" />
        </mxCell>
        <mxCell id="YZDyfqU8U48T_e9WPzMG-119" style="edgeStyle=orthogonalEdgeStyle;rounded=0;orthogonalLoop=1;jettySize=auto;html=1;exitX=0.01;exitY=0.1;exitDx=0;exitDy=0;entryX=1;entryY=0.5;entryDx=0;entryDy=0;fontSize=14;fontFamily=Times New Roman;exitPerimeter=0;" parent="1" source="YZDyfqU8U48T_e9WPzMG-59" target="YZDyfqU8U48T_e9WPzMG-78" edge="1">
          <mxGeometry relative="1" as="geometry" />
        </mxCell>
        <mxCell id="YZDyfqU8U48T_e9WPzMG-121" style="edgeStyle=orthogonalEdgeStyle;rounded=0;orthogonalLoop=1;jettySize=auto;html=1;exitX=0.004;exitY=0.113;exitDx=0;exitDy=0;entryX=1;entryY=0.5;entryDx=0;entryDy=0;fontSize=14;fontFamily=Times New Roman;exitPerimeter=0;" parent="1" source="YZDyfqU8U48T_e9WPzMG-63" target="YZDyfqU8U48T_e9WPzMG-82" edge="1">
          <mxGeometry relative="1" as="geometry" />
        </mxCell>
        <mxCell id="YZDyfqU8U48T_e9WPzMG-127" style="edgeStyle=orthogonalEdgeStyle;rounded=0;orthogonalLoop=1;jettySize=auto;html=1;exitX=0;exitY=0.5;exitDx=0;exitDy=0;entryX=1;entryY=0.5;entryDx=0;entryDy=0;entryPerimeter=0;fontSize=14;fontFamily=Times New Roman;" parent="1" source="YZDyfqU8U48T_e9WPzMG-86" target="YZDyfqU8U48T_e9WPzMG-122" edge="1">
          <mxGeometry relative="1" as="geometry" />
        </mxCell>
        <mxCell id="YZDyfqU8U48T_e9WPzMG-115" style="rounded=0;orthogonalLoop=1;jettySize=auto;html=1;exitX=0.008;exitY=0.111;exitDx=0;exitDy=0;fontSize=14;fontFamily=Times New Roman;entryX=1;entryY=0.5;entryDx=0;entryDy=0;exitPerimeter=0;edgeStyle=orthogonalEdgeStyle;" parent="1" source="YZDyfqU8U48T_e9WPzMG-13" edge="1" target="YZDyfqU8U48T_e9WPzMG-90">
          <mxGeometry relative="1" as="geometry">
            <mxPoint x="313" y="450" as="targetPoint" />
          </mxGeometry>
        </mxCell>
        <mxCell id="YZDyfqU8U48T_e9WPzMG-225" style="rounded=0;orthogonalLoop=1;jettySize=auto;html=1;exitX=0;exitY=0.5;exitDx=0;exitDy=0;entryX=0;entryY=0.5;entryDx=0;entryDy=0;fontSize=14;fontFamily=Times New Roman;" parent="1" source="FPyB5lzsJbotzvCXSLYw-14" target="YZDyfqU8U48T_e9WPzMG-105" edge="1">
          <mxGeometry relative="1" as="geometry" />
        </mxCell>
        <mxCell id="YZDyfqU8U48T_e9WPzMG-226" style="rounded=0;orthogonalLoop=1;jettySize=auto;html=1;exitX=0;exitY=0.75;exitDx=0;exitDy=0;entryX=0;entryY=0.5;entryDx=0;entryDy=0;fontSize=14;fontFamily=Times New Roman;" parent="1" source="FPyB5lzsJbotzvCXSLYw-15" target="YZDyfqU8U48T_e9WPzMG-106" edge="1">
          <mxGeometry relative="1" as="geometry" />
        </mxCell>
        <mxCell id="YZDyfqU8U48T_e9WPzMG-233" value="&lt;span style=&quot;text-wrap-mode: wrap; background-color: rgb(251, 251, 251);&quot;&gt;Similarity&lt;/span&gt;" style="edgeLabel;html=1;align=center;verticalAlign=middle;resizable=0;points=[];fontSize=14;fontFamily=Times New Roman;" parent="YZDyfqU8U48T_e9WPzMG-226" vertex="1" connectable="0">
          <mxGeometry x="0.1276" y="7" relative="1" as="geometry">
            <mxPoint as="offset" />
          </mxGeometry>
        </mxCell>
        <mxCell id="YZDyfqU8U48T_e9WPzMG-227" style="rounded=0;orthogonalLoop=1;jettySize=auto;html=1;exitX=0;exitY=0.5;exitDx=0;exitDy=0;entryX=1;entryY=0.5;entryDx=0;entryDy=0;fontSize=14;fontFamily=Times New Roman;" parent="1" source="FPyB5lzsJbotzvCXSLYw-17" target="YZDyfqU8U48T_e9WPzMG-106" edge="1">
          <mxGeometry relative="1" as="geometry" />
        </mxCell>
        <mxCell id="YZDyfqU8U48T_e9WPzMG-228" style="rounded=0;orthogonalLoop=1;jettySize=auto;html=1;exitX=0;exitY=0.5;exitDx=0;exitDy=0;entryX=0;entryY=0.5;entryDx=0;entryDy=0;fontSize=14;fontFamily=Times New Roman;" parent="1" source="FPyB5lzsJbotzvCXSLYw-54" target="YZDyfqU8U48T_e9WPzMG-110" edge="1">
          <mxGeometry relative="1" as="geometry" />
        </mxCell>
        <mxCell id="YZDyfqU8U48T_e9WPzMG-229" style="rounded=0;orthogonalLoop=1;jettySize=auto;html=1;exitX=0;exitY=0.5;exitDx=0;exitDy=0;entryX=0;entryY=0.5;entryDx=0;entryDy=0;fontSize=14;fontFamily=Times New Roman;" parent="1" source="FPyB5lzsJbotzvCXSLYw-36" target="YZDyfqU8U48T_e9WPzMG-111" edge="1">
          <mxGeometry relative="1" as="geometry" />
        </mxCell>
        <mxCell id="YZDyfqU8U48T_e9WPzMG-234" value="&lt;span style=&quot;text-wrap-mode: wrap; background-color: rgb(251, 251, 251);&quot;&gt;Similarity&lt;/span&gt;" style="edgeLabel;html=1;align=center;verticalAlign=middle;resizable=0;points=[];fontSize=14;fontFamily=Times New Roman;" parent="YZDyfqU8U48T_e9WPzMG-229" vertex="1" connectable="0">
          <mxGeometry x="0.3213" y="3" relative="1" as="geometry">
            <mxPoint as="offset" />
          </mxGeometry>
        </mxCell>
        <mxCell id="YZDyfqU8U48T_e9WPzMG-230" style="rounded=0;orthogonalLoop=1;jettySize=auto;html=1;exitX=0;exitY=0.5;exitDx=0;exitDy=0;entryX=1;entryY=0.5;entryDx=0;entryDy=0;fontSize=14;fontFamily=Times New Roman;" parent="1" source="FPyB5lzsJbotzvCXSLYw-37" target="YZDyfqU8U48T_e9WPzMG-111" edge="1">
          <mxGeometry relative="1" as="geometry" />
        </mxCell>
        <mxCell id="YZDyfqU8U48T_e9WPzMG-149" value="&lt;span style=&quot;color: rgb(0, 0, 0); background-color: rgb(251, 251, 251); float: none; display: inline !important;&quot;&gt;e&lt;sup&gt;(0)&lt;/sup&gt;&lt;sub&gt;i4&lt;/sub&gt;&lt;/span&gt;" style="text;html=1;align=center;verticalAlign=middle;whiteSpace=wrap;rounded=0;fontSize=14;fontFamily=Times New Roman;" parent="1" vertex="1">
          <mxGeometry x="713" y="200" width="60" height="30" as="geometry" />
        </mxCell>
        <mxCell id="FPyB5lzsJbotzvCXSLYw-57" value="" style="group" vertex="1" connectable="0" parent="1">
          <mxGeometry x="738" y="67" width="109.25" height="396" as="geometry" />
        </mxCell>
        <mxCell id="YZDyfqU8U48T_e9WPzMG-218" value="" style="group;fontSize=14;fontFamily=Times New Roman;" parent="FPyB5lzsJbotzvCXSLYw-57" vertex="1" connectable="0">
          <mxGeometry x="55.25" y="18" width="54" height="18" as="geometry" />
        </mxCell>
        <mxCell id="YZDyfqU8U48T_e9WPzMG-219" value="" style="whiteSpace=wrap;html=1;aspect=fixed;fontSize=14;fontFamily=Times New Roman;" parent="YZDyfqU8U48T_e9WPzMG-218" vertex="1">
          <mxGeometry width="18" height="18" as="geometry" />
        </mxCell>
        <mxCell id="FPyB5lzsJbotzvCXSLYw-13" value="" style="whiteSpace=wrap;html=1;aspect=fixed;fontSize=14;fontFamily=Times New Roman;" vertex="1" parent="FPyB5lzsJbotzvCXSLYw-57">
          <mxGeometry x="55.25" y="72" width="18" height="18" as="geometry" />
        </mxCell>
        <mxCell id="FPyB5lzsJbotzvCXSLYw-14" value="" style="whiteSpace=wrap;html=1;aspect=fixed;fontSize=14;fontFamily=Times New Roman;" vertex="1" parent="FPyB5lzsJbotzvCXSLYw-57">
          <mxGeometry x="55.25" y="36" width="18" height="18" as="geometry" />
        </mxCell>
        <mxCell id="FPyB5lzsJbotzvCXSLYw-15" value="" style="whiteSpace=wrap;html=1;aspect=fixed;fontSize=14;fontFamily=Times New Roman;" vertex="1" parent="FPyB5lzsJbotzvCXSLYw-57">
          <mxGeometry x="55.25" y="54" width="18" height="18" as="geometry" />
        </mxCell>
        <mxCell id="FPyB5lzsJbotzvCXSLYw-16" value="" style="whiteSpace=wrap;html=1;aspect=fixed;fontSize=14;fontFamily=Times New Roman;" vertex="1" parent="FPyB5lzsJbotzvCXSLYw-57">
          <mxGeometry x="55.25" y="126" width="18" height="18" as="geometry" />
        </mxCell>
        <mxCell id="FPyB5lzsJbotzvCXSLYw-17" value="" style="whiteSpace=wrap;html=1;aspect=fixed;fontSize=14;fontFamily=Times New Roman;" vertex="1" parent="FPyB5lzsJbotzvCXSLYw-57">
          <mxGeometry x="55.25" y="90" width="18" height="18" as="geometry" />
        </mxCell>
        <mxCell id="FPyB5lzsJbotzvCXSLYw-18" value="" style="whiteSpace=wrap;html=1;aspect=fixed;fontSize=14;fontFamily=Times New Roman;" vertex="1" parent="FPyB5lzsJbotzvCXSLYw-57">
          <mxGeometry x="55.25" y="108" width="18" height="18" as="geometry" />
        </mxCell>
        <mxCell id="FPyB5lzsJbotzvCXSLYw-29" value="" style="group;fontSize=14;fontFamily=Times New Roman;" vertex="1" connectable="0" parent="FPyB5lzsJbotzvCXSLYw-57">
          <mxGeometry x="55.25" y="180" width="54" height="18" as="geometry" />
        </mxCell>
        <mxCell id="FPyB5lzsJbotzvCXSLYw-30" value="" style="whiteSpace=wrap;html=1;aspect=fixed;fontSize=14;fontFamily=Times New Roman;" vertex="1" parent="FPyB5lzsJbotzvCXSLYw-29">
          <mxGeometry width="18" height="18" as="geometry" />
        </mxCell>
        <mxCell id="FPyB5lzsJbotzvCXSLYw-31" value="" style="whiteSpace=wrap;html=1;aspect=fixed;fontSize=14;fontFamily=Times New Roman;" vertex="1" parent="FPyB5lzsJbotzvCXSLYw-57">
          <mxGeometry x="55.25" y="144" width="18" height="18" as="geometry" />
        </mxCell>
        <mxCell id="FPyB5lzsJbotzvCXSLYw-32" value="" style="whiteSpace=wrap;html=1;aspect=fixed;fontSize=14;fontFamily=Times New Roman;" vertex="1" parent="FPyB5lzsJbotzvCXSLYw-57">
          <mxGeometry x="55.25" y="162" width="18" height="18" as="geometry" />
        </mxCell>
        <mxCell id="FPyB5lzsJbotzvCXSLYw-33" value="" style="whiteSpace=wrap;html=1;aspect=fixed;fontSize=14;fontFamily=Times New Roman;" vertex="1" parent="FPyB5lzsJbotzvCXSLYw-57">
          <mxGeometry x="55.25" y="234" width="18" height="18" as="geometry" />
        </mxCell>
        <mxCell id="FPyB5lzsJbotzvCXSLYw-34" value="" style="whiteSpace=wrap;html=1;aspect=fixed;fontSize=14;fontFamily=Times New Roman;" vertex="1" parent="FPyB5lzsJbotzvCXSLYw-57">
          <mxGeometry x="55.25" y="198" width="18" height="18" as="geometry" />
        </mxCell>
        <mxCell id="FPyB5lzsJbotzvCXSLYw-35" value="" style="whiteSpace=wrap;html=1;aspect=fixed;fontSize=14;fontFamily=Times New Roman;" vertex="1" parent="FPyB5lzsJbotzvCXSLYw-57">
          <mxGeometry x="55.25" y="216" width="18" height="18" as="geometry" />
        </mxCell>
        <mxCell id="FPyB5lzsJbotzvCXSLYw-36" value="" style="whiteSpace=wrap;html=1;aspect=fixed;fontSize=14;fontFamily=Times New Roman;" vertex="1" parent="FPyB5lzsJbotzvCXSLYw-57">
          <mxGeometry x="55.25" y="288" width="18" height="18" as="geometry" />
        </mxCell>
        <mxCell id="FPyB5lzsJbotzvCXSLYw-37" value="" style="whiteSpace=wrap;html=1;aspect=fixed;fontSize=14;fontFamily=Times New Roman;" vertex="1" parent="FPyB5lzsJbotzvCXSLYw-57">
          <mxGeometry x="55.25" y="252" width="18" height="18" as="geometry" />
        </mxCell>
        <mxCell id="FPyB5lzsJbotzvCXSLYw-38" value="" style="whiteSpace=wrap;html=1;aspect=fixed;fontSize=14;fontFamily=Times New Roman;" vertex="1" parent="FPyB5lzsJbotzvCXSLYw-57">
          <mxGeometry x="55.25" y="270" width="18" height="18" as="geometry" />
        </mxCell>
        <mxCell id="FPyB5lzsJbotzvCXSLYw-51" value="&lt;span style=&quot;text-wrap-mode: wrap; background-color: rgb(251, 251, 251);&quot;&gt;Similarity&lt;/span&gt;" style="edgeLabel;html=1;align=center;verticalAlign=middle;resizable=0;points=[];fontSize=14;fontFamily=Times New Roman;" vertex="1" connectable="0" parent="FPyB5lzsJbotzvCXSLYw-57">
          <mxGeometry y="351.5797762622394" as="geometry" />
        </mxCell>
        <mxCell id="FPyB5lzsJbotzvCXSLYw-52" value="" style="whiteSpace=wrap;html=1;aspect=fixed;fontSize=14;fontFamily=Times New Roman;" vertex="1" parent="FPyB5lzsJbotzvCXSLYw-57">
          <mxGeometry x="55.2491569189217" y="324" width="18" height="18" as="geometry" />
        </mxCell>
        <mxCell id="FPyB5lzsJbotzvCXSLYw-53" value="" style="whiteSpace=wrap;html=1;aspect=fixed;fontSize=14;fontFamily=Times New Roman;" vertex="1" parent="FPyB5lzsJbotzvCXSLYw-57">
          <mxGeometry x="55.2491569189217" y="306" width="18" height="18" as="geometry" />
        </mxCell>
        <mxCell id="FPyB5lzsJbotzvCXSLYw-54" value="" style="whiteSpace=wrap;html=1;aspect=fixed;fontSize=14;fontFamily=Times New Roman;" vertex="1" parent="FPyB5lzsJbotzvCXSLYw-57">
          <mxGeometry x="55.2491569189217" y="378" width="18" height="18" as="geometry" />
        </mxCell>
        <mxCell id="FPyB5lzsJbotzvCXSLYw-55" value="" style="whiteSpace=wrap;html=1;aspect=fixed;fontSize=14;fontFamily=Times New Roman;" vertex="1" parent="FPyB5lzsJbotzvCXSLYw-57">
          <mxGeometry x="55.2491569189217" y="342" width="18" height="18" as="geometry" />
        </mxCell>
        <mxCell id="FPyB5lzsJbotzvCXSLYw-56" value="" style="whiteSpace=wrap;html=1;aspect=fixed;fontSize=14;fontFamily=Times New Roman;" vertex="1" parent="FPyB5lzsJbotzvCXSLYw-57">
          <mxGeometry x="55.2491569189217" y="360" width="18" height="18" as="geometry" />
        </mxCell>
        <mxCell id="FPyB5lzsJbotzvCXSLYw-58" style="edgeStyle=orthogonalEdgeStyle;rounded=0;orthogonalLoop=1;jettySize=auto;html=1;exitX=0.5;exitY=1;exitDx=0;exitDy=0;entryX=0.5;entryY=0;entryDx=0;entryDy=0;fontFamily=Times New Roman;fontSize=14;" edge="1" parent="1" source="zP14yPHalmkNqVkcghxw-1" target="YZDyfqU8U48T_e9WPzMG-137">
          <mxGeometry relative="1" as="geometry">
            <mxPoint x="964" y="236" as="sourcePoint" />
            <mxPoint x="1025" y="391" as="targetPoint" />
          </mxGeometry>
        </mxCell>
        <mxCell id="FPyB5lzsJbotzvCXSLYw-59" value="&lt;span&gt;&lt;font&gt;weight reWrite&lt;/font&gt;&lt;/span&gt;" style="edgeLabel;html=1;align=center;verticalAlign=middle;resizable=0;points=[];fontFamily=Times New Roman;fontSize=14;" vertex="1" connectable="0" parent="FPyB5lzsJbotzvCXSLYw-58">
          <mxGeometry x="0.4353" y="2" relative="1" as="geometry">
            <mxPoint x="-58" y="-64" as="offset" />
          </mxGeometry>
        </mxCell>
      </root>
    </mxGraphModel>
  </diagram>
</mxfile>
